<svg xmlns="http://www.w3.org/2000/svg" xmlns:xlink="http://www.w3.org/1999/xlink" contentStyleType="text/css" height="612px" preserveAspectRatio="none" style="width:801px;height:612px;background:#FFFFFF;" version="1.1" viewBox="0 0 801 612" width="801px" zoomAndPan="magnify"><defs/><g><path d="M19.5,87 L775.23,87 A12.5,12.5 0 0 1 787.73,99.5 L787.73,113.2969 L7,113.2969 L7,99.5 A12.5,12.5 0 0 1 19.5,87 " fill="#F1F1F1" style="stroke:#F1F1F1;stroke-width:1.0;"/><rect fill="none" height="420.6494" rx="12.5" ry="12.5" style="stroke:#181818;stroke-width:0.5;" width="780.73" x="7" y="87"/><line style="stroke:#181818;stroke-width:0.5;" x1="7" x2="787.73" y1="113.2969" y2="113.2969"/><text fill="#000000" font-family="sans-serif" font-size="14" lengthAdjust="spacing" textLength="70" x="362.365" y="104.9951">TcpServer</text><g id="TcpServer.ConnectionListener"><rect fill="#F1F1F1" height="50.2656" rx="12.5" ry="12.5" style="stroke:#181818;stroke-width:0.5;" width="248" x="56" y="125.2969"/><line style="stroke:#181818;stroke-width:0.5;" x1="56" x2="304" y1="151.5938" y2="151.5938"/><text fill="#000000" font-family="sans-serif" font-size="14" lengthAdjust="spacing" textLength="135" x="112.5" y="143.292">ConnectionListener</text><text fill="#000000" font-family="sans-serif" font-size="12" lengthAdjust="spacing" textLength="228" x="61" y="167.7324">Listens for new incoming connection</text></g><ellipse cx="28" cy="150.4369" fill="#222222" rx="10" ry="10" style="stroke:#222222;stroke-width:1.0;"/><!--link *start*TcpServer to ConnectionListener--><g id="link_*start*TcpServer_ConnectionListener"><path d="M38.39,150.4369 C44.11,150.4369 43.82,150.4369 49.54,150.4369 " fill="none" id="*start*TcpServer-to-ConnectionListener" style="stroke:#181818;stroke-width:1.0;"/><polygon fill="#181818" points="55.54,150.4369,46.54,146.4369,50.54,150.4369,46.54,154.4369,55.54,150.4369" style="stroke:#181818;stroke-width:1.0;"/></g><line style="stroke:#181818;stroke-width:1.5;stroke-dasharray:8.0,10.0;" x1="12" x2="780.73" y1="180.5625" y2="180.5625"/><rect fill="#555555" height="8" style="stroke:none;stroke-width:1.0;" width="80" x="121" y="390.2425"/><g id="TcpServer.CONC6.PackageListener"><rect fill="#F1F1F1" height="50.2656" rx="12.5" ry="12.5" style="stroke:#181818;stroke-width:0.5;" width="210" x="56" y="187.5625"/><line style="stroke:#181818;stroke-width:0.5;" x1="56" x2="266" y1="213.8594" y2="213.8594"/><text fill="#000000" font-family="sans-serif" font-size="14" lengthAdjust="spacing" textLength="114" x="104" y="205.5576">PackageListener</text><text fill="#000000" font-family="sans-serif" font-size="12" lengthAdjust="spacing" textLength="190" x="61" y="229.998">Listens for incoming packages</text></g><path d="M231.76,290.8225 L766.23,290.8225 A12.5,12.5 0 0 1 778.73,303.3225 L778.73,317.1194 L219.26,317.1194 L219.26,303.3225 A12.5,12.5 0 0 1 231.76,290.8225 " fill="#F1F1F1" style="stroke:#F1F1F1;stroke-width:1.0;"/><rect fill="none" height="206.8269" rx="12.5" ry="12.5" style="stroke:#181818;stroke-width:0.5;" width="559.47" x="219.26" y="290.8225"/><line style="stroke:#181818;stroke-width:0.5;" x1="219.26" x2="778.73" y1="317.1194" y2="317.1194"/><text fill="#000000" font-family="sans-serif" font-size="14" lengthAdjust="spacing" textLength="96" x="450.995" y="308.8176">GameSession</text><g id="TcpServer.CONC6.GameSession.Preperation"><rect fill="#F1F1F1" height="50.2656" rx="12.5" ry="12.5" style="stroke:#181818;stroke-width:0.5;" width="165" x="268.76" y="329.1194"/><line style="stroke:#181818;stroke-width:0.5;" x1="268.76" x2="433.76" y1="355.4163" y2="355.4163"/><text fill="#000000" font-family="sans-serif" font-size="14" lengthAdjust="spacing" textLength="80" x="311.26" y="347.1145">Preperation</text><text fill="#000000" font-family="sans-serif" font-size="12" lengthAdjust="spacing" textLength="145" x="273.76" y="371.5549">Manages a game lobby</text></g><g id="TcpServer.CONC6.GameSession.Running"><rect fill="#F1F1F1" height="50.2656" rx="12.5" ry="12.5" style="stroke:#181818;stroke-width:0.5;" width="180" x="558.26" y="329.1194"/><line style="stroke:#181818;stroke-width:0.5;" x1="558.26" x2="738.26" y1="355.4163" y2="355.4163"/><text fill="#000000" font-family="sans-serif" font-size="14" lengthAdjust="spacing" textLength="58" x="619.26" y="347.1145">Running</text><text fill="#000000" font-family="sans-serif" font-size="12" lengthAdjust="spacing" textLength="160" x="563.26" y="371.5549">Manages a running game</text></g><g id="TcpServer.CONC6.GameSession.Ended"><rect fill="#F1F1F1" height="50.2656" rx="12.5" ry="12.5" style="stroke:#181818;stroke-width:0.5;" width="206" x="455.26" y="397.3794"/><line style="stroke:#181818;stroke-width:0.5;" x1="455.26" x2="661.26" y1="423.6763" y2="423.6763"/><text fill="#000000" font-family="sans-serif" font-size="14" lengthAdjust="spacing" textLength="45" x="535.76" y="415.3745">Ended</text><text fill="#000000" font-family="sans-serif" font-size="12" lengthAdjust="spacing" textLength="186" x="460.26" y="439.8149">Manages a games endscreen</text></g><ellipse cx="240.26" cy="354.2494" fill="#222222" rx="10" ry="10" style="stroke:#222222;stroke-width:1.0;"/><ellipse cx="558.26" cy="476.6494" fill="none" rx="11" ry="11" style="stroke:#222222;stroke-width:1.0;"/><ellipse cx="558.26" cy="476.6494" fill="#222222" rx="6" ry="6" style="stroke:#222222;stroke-width:1.0;"/><!--link *start*GameSession to Preperation--><g id="link_*start*GameSession_Preperation"><path d="M250.67,354.2494 C256.56,354.2494 256.45,354.2494 262.35,354.2494 " fill="none" id="*start*GameSession-to-Preperation" style="stroke:#181818;stroke-width:1.0;"/><polygon fill="#181818" points="268.35,354.2494,259.35,350.2494,263.35,354.2494,259.35,358.2494,268.35,354.2494" style="stroke:#181818;stroke-width:1.0;"/></g><!--link Preperation to Running--><g id="link_Preperation_Running"><path d="M433.99,354.2494 C472.52,354.2494 512.46,354.2494 551.9,354.2494 " fill="none" id="Preperation-to-Running" style="stroke:#181818;stroke-width:1.0;"/><polygon fill="#181818" points="557.9,354.2494,548.9,350.2494,552.9,354.2494,548.9,358.2494,557.9,354.2494" style="stroke:#181818;stroke-width:1.0;"/><text fill="#000000" font-family="sans-serif" font-size="13" lengthAdjust="spacing" textLength="105" x="443.51" y="347.3163">All players ready</text></g><!--link Running to Ended--><g id="link_Running_Ended"><path d="M615,379.7394 C607.39,385.3394 604.1318,387.7421 596.5118,393.3521 " fill="none" id="Running-to-Ended" style="stroke:#181818;stroke-width:1.0;"/><polygon fill="#181818" points="591.68,396.9094,601.2992,394.7947,595.7065,393.945,596.5562,388.3523,591.68,396.9094" style="stroke:#181818;stroke-width:1.0;"/></g><!--link Ended to *end*GameSession--><g id="link_Ended_*end*GameSession"><path d="M558.26,448.0594 C558.26,454.0794 558.26,454.2094 558.26,459.1594 " fill="none" id="Ended-to-*end*GameSession" style="stroke:#181818;stroke-width:1.0;"/><polygon fill="#181818" points="558.26,465.1594,562.26,456.1594,558.26,460.1594,554.26,456.1594,558.26,465.1594" style="stroke:#181818;stroke-width:1.0;"/></g><!--link Preperation to *end*GameSession--><g id="link_Preperation_*end*GameSession"><path d="M341.85,379.5194 C335.6,400.1594 331.18,429.2894 347.26,447.6494 C373.68,477.8094 500.9217,477.1034 540.9017,476.1434 " fill="none" id="Preperation-to-*end*GameSession" style="stroke:#181818;stroke-width:1.0;"/><polygon fill="#181818" points="546.9,475.9994,537.8066,472.2166,541.9014,476.1194,537.9986,480.2143,546.9,475.9994" style="stroke:#181818;stroke-width:1.0;"/><text fill="#000000" font-family="sans-serif" font-size="13" lengthAdjust="spacing" textLength="97" x="348.26" y="427.0863">ServerInterrupt</text></g><!--link Running to *end*GameSession--><g id="link_Running_*end*GameSession"><path d="M661.09,379.7194 C669.71,399.9294 677.06,428.3294 662.26,447.6494 C650.89,462.4894 599.7617,470.4693 575.3317,473.5893 " fill="none" id="Running-to-*end*GameSession" style="stroke:#181818;stroke-width:1.0;"/><polygon fill="#181818" points="569.38,474.3494,578.8142,477.177,574.3397,473.716,577.8008,469.2415,569.38,474.3494" style="stroke:#181818;stroke-width:1.0;"/><text fill="#000000" font-family="sans-serif" font-size="13" lengthAdjust="spacing" textLength="97" x="671.73" y="427.0863">ServerInterrupt</text></g><ellipse cx="28" cy="212.6925" fill="#222222" rx="10" ry="10" style="stroke:#222222;stroke-width:1.0;"/><!--link *start*CONC6 to PackageListener--><g id="link_*start*CONC6_PackageListener"><path d="M38.39,212.6925 C44.14,212.6925 43.89,212.6925 49.63,212.6925 " fill="none" id="*start*CONC6-to-PackageListener" style="stroke:#181818;stroke-width:1.0;"/><polygon fill="#181818" points="55.63,212.6925,46.63,208.6925,50.63,212.6925,46.63,216.6925,55.63,212.6925" style="stroke:#181818;stroke-width:1.0;"/></g><!--link PackageListener to GameSessionFork--><g id="link_PackageListener_GameSessionFork"><path d="M79.55,238.0925 C72.7,242.9625 66.64,248.8125 62,255.8225 C25.67,310.7625 123.5191,371.7808 149.8391,386.9208 " fill="none" id="PackageListener-to-GameSessionFork" style="stroke:#181818;stroke-width:1.0;"/><polygon fill="#181818" points="155.04,389.9125,149.2331,381.9576,150.7059,387.4194,145.2441,388.8922,155.04,389.9125" style="stroke:#181818;stroke-width:1.0;"/><text fill="#000000" font-family="sans-serif" font-size="13" lengthAdjust="spacing" textLength="175" x="63" y="268.8894">StartGameSessionPackage</text></g><!--link GameSessionFork to PackageListener--><g id="link_GameSessionFork_PackageListener"><path d="M161.77,389.9825 C165.15,376.2725 179.89,322.5725 210,290.8225 C221.5,278.7025 234.47,287.1925 243,272.8225 C246.86,266.3325 246.94,262.2725 243,255.8225 C238.75,248.8625 237.7353,246.5855 231.1553,241.6655 " fill="none" id="GameSessionFork-to-PackageListener" style="stroke:#181818;stroke-width:1.0;"/><polygon fill="#181818" points="226.35,238.0725,231.1626,246.6655,230.3544,241.0667,235.9532,240.2585,226.35,238.0725" style="stroke:#181818;stroke-width:1.0;"/></g><!--link GameSessionFork to GameSession--><g id="link_GameSessionFork_GameSession"><path d="M201.27,394.2425 C207.18,394.2425 207.09,394.2425 213.01,394.2425 " fill="none" id="GameSessionFork-to-GameSession" style="stroke:#181818;stroke-width:1.0;"/><polygon fill="#181818" points="219.01,394.2425,210.01,390.2425,214.01,394.2425,210.01,398.2425,219.01,394.2425" style="stroke:#181818;stroke-width:1.0;"/></g><ellipse cx="397.36" cy="16" fill="#222222" rx="10" ry="10" style="stroke:#222222;stroke-width:1.0;"/><ellipse cx="397.36" cy="595.65" fill="none" rx="11" ry="11" style="stroke:#222222;stroke-width:1.0;"/><ellipse cx="397.36" cy="595.65" fill="#222222" rx="6" ry="6" style="stroke:#222222;stroke-width:1.0;"/><!--link *start* to TcpServer--><g id="link_*start*_TcpServer"><path d="M397.36,26.29 C397.36,38.08 397.36,54.1 397.36,80.68 " fill="none" id="*start*-to-TcpServer" style="stroke:#181818;stroke-width:1.0;"/><polygon fill="#181818" points="397.36,86.68,401.36,77.68,397.36,81.68,393.36,77.68,397.36,86.68" style="stroke:#181818;stroke-width:1.0;"/></g><!--link TcpServer to *end*--><g id="link_TcpServer_*end*"><path d="M397.36,508.14 C397.36,541.59 397.36,563.94 397.36,578.39 " fill="none" id="TcpServer-to-*end*" style="stroke:#181818;stroke-width:1.0;"/><polygon fill="#181818" points="397.36,584.39,401.36,575.39,397.36,579.39,393.36,575.39,397.36,584.39" style="stroke:#181818;stroke-width:1.0;"/><text fill="#000000" font-family="sans-serif" font-size="13" lengthAdjust="spacing" textLength="115" x="398.36" y="550.7169">KeyboardInterrupt</text></g><!--SRC=[XPB1IiGm48RlUOev2ts1iXH4L4GNnFKc7j9aBANTIPbaNOhuxaxIqdQx1I-bp7pv_tyoyK47X7VJ7P2_aU570Tmv8ZIXTlHI-u24dCFmv-7BCH2UeIRZZZLLO2POJdxSV49MR0X8Byio-VhazwYFU43lXNXmtC1k9xfDKGZmgasZAznsdboxWV9RYca64MBia7LCaSDUKyH1GoKWjAui-qIzdOX4S4dmK4faOkx9ebrhU42otZ0YgKIDiozirp5YU_I376xR5hfMzyWU6BMzo1FHP2jW70tyE9kOnYktTH8CN5UL2Cmnuq59egwzhJlJq1JDOTjF593vr8LBwt_8NpLlUhMjw_rDQkkLYtBG71RbyQHehDbDemreKL9AOgQGKf-UjveVUZPD-8nzwJJRQSO_]--></g></svg>