<svg xmlns="http://www.w3.org/2000/svg" xmlns:xlink="http://www.w3.org/1999/xlink" contentStyleType="text/css" height="608px" preserveAspectRatio="none" style="width:537px;height:608px;background:#FFFFFF;" version="1.1" viewBox="0 0 537 608" width="537px" zoomAndPan="magnify"><defs/><g><text fill="#000000" font-family="sans-serif" font-size="14" font-weight="bold" lengthAdjust="spacing" textLength="248" x="137.79" y="22.9951">BBC Server - Use Case Diagram</text><!--cluster Game Server--><g id="cluster_Game Server"><rect fill="none" height="558" rx="2.5" ry="2.5" style="stroke:#181818;stroke-width:1.0;" width="235.58" x="94" y="44.2969"/><text fill="#000000" font-family="sans-serif" font-size="14" font-weight="bold" lengthAdjust="spacing" textLength="103" x="160.29" y="59.292">Game Server</text></g><g id="elem_Connect to Server"><ellipse cx="211.792" cy="344.2993" fill="#F1F1F1" rx="82.712" ry="18.9424" style="stroke:#181818;stroke-width:0.5;"/><text fill="#000000" font-family="sans-serif" font-size="14" lengthAdjust="spacing" textLength="125" x="148.6008" y="347.3784">Connect to Server</text></g><g id="elem_Create Game Session"><ellipse cx="211.7893" cy="179.3007" fill="#F1F1F1" rx="93.6693" ry="21.1339" style="stroke:#181818;stroke-width:0.5;"/><text fill="#000000" font-family="sans-serif" font-size="14" lengthAdjust="spacing" textLength="150" x="136.7893" y="182.1474">Create Game Session</text></g><g id="elem_Join Game Session"><ellipse cx="211.785" cy="271.2959" fill="#F1F1F1" rx="83.995" ry="19.199" style="stroke:#181818;stroke-width:0.5;"/><text fill="#000000" font-family="sans-serif" font-size="14" lengthAdjust="spacing" textLength="128" x="147.5235" y="274.2324">Join Game Session</text></g><g id="elem_Update Ready Status"><ellipse cx="211.7931" cy="419.2955" fill="#F1F1F1" rx="91.4431" ry="20.6886" style="stroke:#181818;stroke-width:0.5;"/><text fill="#000000" font-family="sans-serif" font-size="14" lengthAdjust="spacing" textLength="145" x="139.2931" y="422.1422">Update Ready Status</text></g><g id="elem_Send Click"><ellipse cx="211.7949" cy="490.2938" fill="#F1F1F1" rx="62.7349" ry="14.947" style="stroke:#181818;stroke-width:0.5;"/><text fill="#000000" font-family="sans-serif" font-size="14" lengthAdjust="spacing" textLength="72" x="172.7949" y="494.0414">Send Click</text></g><g id="elem_Shop Purchase Request"><ellipse cx="211.7923" cy="563.2953" fill="#F1F1F1" rx="101.7923" ry="22.7585" style="stroke:#181818;stroke-width:0.5;"/><text fill="#000000" font-family="sans-serif" font-size="14" lengthAdjust="spacing" textLength="168" x="127.7923" y="566.142">Shop Purchase Request</text></g><g id="elem_Broadcast Game State"><ellipse cx="211.7895" cy="101.2988" fill="#F1F1F1" rx="95.9095" ry="21.5819" style="stroke:#181818;stroke-width:0.5;"/><text fill="#000000" font-family="sans-serif" font-size="14" lengthAdjust="spacing" textLength="155" x="134.2895" y="104.1455">Broadcast Game State</text></g><!--entity Player--><g id="elem_Player"><ellipse cx="26.5" cy="361.6469" fill="#F1F1F1" rx="8" ry="8" style="stroke:#181818;stroke-width:0.5;"/><path d="M26.5,369.6469 L26.5,396.6469 M13.5,377.6469 L39.5,377.6469 M26.5,396.6469 L13.5,411.6469 M26.5,396.6469 L39.5,411.6469 " fill="none" style="stroke:#181818;stroke-width:0.5;"/><text fill="#000000" font-family="sans-serif" font-size="14" lengthAdjust="spacing" textLength="41" x="6" y="426.142">Player</text></g><g id="elem_GMN18"><path d="M376.58,81.1669 L376.58,97.2969 L307.91,101.2969 L376.58,105.2969 L376.58,121.4325 A0,0 0 0 0 376.58,121.4325 L530.58,121.4325 A0,0 0 0 0 530.58,121.4325 L530.58,91.1669 L520.58,81.1669 L376.58,81.1669 A0,0 0 0 0 376.58,81.1669 " fill="#FEFFDD" style="stroke:#181818;stroke-width:0.5;"/><path d="M520.58,81.1669 L520.58,91.1669 L530.58,91.1669 L520.58,81.1669 " fill="#FEFFDD" style="stroke:#181818;stroke-width:0.5;"/><text fill="#000000" font-family="sans-serif" font-size="13" lengthAdjust="spacing" textLength="133" x="382.58" y="98.2338">Periodically triggered</text><text fill="#000000" font-family="sans-serif" font-size="13" lengthAdjust="spacing" textLength="125" x="382.58" y="113.3666">by game loop timer</text></g><!--link Create Game Session to Join Game Session--><g id="link_Create Game Session_Join Game Session"><path d="M211.79,200.7069 C211.79,216.1369 211.79,230.8069 211.79,245.7869 " fill="none" id="Create Game Session-to-Join Game Session" style="stroke:#181818;stroke-width:1.0;stroke-dasharray:7.0,7.0;"/><polygon fill="#181818" points="211.79,251.7869,215.79,242.7869,211.79,246.7869,207.79,242.7869,211.79,251.7869" style="stroke:#181818;stroke-width:1.0;"/><text fill="#000000" font-family="sans-serif" font-size="13" lengthAdjust="spacing" textLength="61" x="169.79" y="230.8338">&#171;include&#187;</text></g><!--link Player to Connect to Server--><g id="link_Player_Connect to Server"><path d="M47.14,384.5269 C56.18,381.5169 67.08,378.0469 77,375.2969 C100.67,368.7469 121.0977,363.7698 144.0577,358.5798 " fill="none" id="Player-to-Connect to Server" style="stroke:#181818;stroke-width:1.0;"/><polygon fill="#181818" points="149.91,357.2569,140.2496,355.3397,145.033,358.3593,142.0134,363.1428,149.91,357.2569" style="stroke:#181818;stroke-width:1.0;"/></g><!--link Player to Create Game Session--><g id="link_Player_Create Game Session"><path d="M33.12,352.9169 C40.05,318.0569 54.96,267.1969 86,234.2969 C102.98,216.2969 121.2777,205.9487 143.6277,197.4987 " fill="none" id="Player-to-Create Game Session" style="stroke:#181818;stroke-width:1.0;"/><polygon fill="#181818" points="149.24,195.3769,139.407,194.8182,144.5631,197.1451,142.2362,202.3012,149.24,195.3769" style="stroke:#181818;stroke-width:1.0;"/></g><!--link Player to Join Game Session--><g id="link_Player_Join Game Session"><path d="M46.98,352.9869 C56.76,337.1369 69.96,319.8069 86,308.2969 C102.71,296.3069 117.5242,289.7919 137.1442,284.2719 " fill="none" id="Player-to-Join Game Session" style="stroke:#181818;stroke-width:1.0;"/><polygon fill="#181818" points="142.92,282.6469,133.173,281.2338,138.1069,284.001,135.3397,288.9349,142.92,282.6469" style="stroke:#181818;stroke-width:1.0;"/></g><!--link Player to Update Ready Status--><g id="link_Player_Update Ready Status"><path d="M47.46,394.3469 C68.53,397.5669 97.0886,401.9324 128.9586,406.7924 " fill="none" id="Player-to-Update Ready Status" style="stroke:#181818;stroke-width:1.0;"/><polygon fill="#181818" points="134.89,407.6969,126.5959,402.3858,129.9471,406.9431,125.3898,410.2944,134.89,407.6969" style="stroke:#181818;stroke-width:1.0;"/></g><!--link Player to Send Click--><g id="link_Player_Send Click"><path d="M47.28,420.5669 C57.45,433.5569 70.88,447.9869 86,457.2969 C107.08,470.2869 127.3482,476.973 150.2382,481.783 " fill="none" id="Player-to-Send Click" style="stroke:#181818;stroke-width:1.0;"/><polygon fill="#181818" points="156.11,483.0169,148.1249,477.2516,151.2169,481.9887,146.4798,485.0806,156.11,483.0169" style="stroke:#181818;stroke-width:1.0;"/></g><!--link Player to Shop Purchase Request--><g id="link_Player_Shop Purchase Request"><path d="M35.75,429.8769 C43.88,459.0169 59.09,498.0169 86,522.2969 C99.21,534.2169 110.2958,540.6695 127.1958,546.6695 " fill="none" id="Player-to-Shop Purchase Request" style="stroke:#181818;stroke-width:1.0;"/><polygon fill="#181818" points="132.85,548.6769,125.7069,541.8963,128.1381,547.004,123.0304,549.4352,132.85,548.6769" style="stroke:#181818;stroke-width:1.0;"/></g><!--SRC=[TLB1QiCm3BtxAqGlMm_T1uoIGp8Ox5HQ-W6QhQPcZft9oY2C_Vjiua8AhW_6l2SzISyIAuwWRJiu4VyGmmxEaQ33TBrPx1a7vUWY807OzbS1OvcqsE2LGYs1uU1m9bOgm-Zx9BTvnu6Au0P-5QJpt0NlKqGMMfXjmPbG24fAZ4cvC1_1-Xf-7atEE1AQ6Kw2CiN2dCWRw9pLNpVW6aOuJAolUQ0ZVKyKfN0j1pGQevGQIOYswd5JyDBKUe9NsE-jrsuor3JgJwd54DZjckhKTtHj-7L0nOCrNRLY7R1sv0wl6wEUqdjaYkJ5-Xwi5sAF3aPY6upL86aB-lJTFgIwoqQ4ooCp0Gub3vsRRxba4l4vGvyZNKYDY1sIP6uro_u3]--></g></svg>