<svg xmlns="http://www.w3.org/2000/svg" xmlns:xlink="http://www.w3.org/1999/xlink" contentStyleType="text/css" height="608px" preserveAspectRatio="none" style="width:535px;height:608px;background:#FFFFFF;" version="1.1" viewBox="0 0 535 608" width="535px" zoomAndPan="magnify"><defs/><g><text fill="#000000" font-family="sans-serif" font-size="14" font-weight="bold" lengthAdjust="spacing" textLength="248" x="136.79" y="22.9951">BBC Server - Use Case Diagram</text><!--cluster Game Server--><g id="cluster_Game Server"><rect fill="none" height="558" rx="2.5" ry="2.5" style="stroke:#181818;stroke-width:1.0;" width="235.58" x="92" y="44.2969"/><text fill="#000000" font-family="sans-serif" font-size="14" font-weight="bold" lengthAdjust="spacing" textLength="103" x="158.29" y="59.292">Game Server</text></g><g id="elem_Connect to Server"><ellipse cx="209.792" cy="344.2993" fill="#F1F1F1" rx="82.712" ry="18.9424" style="stroke:#181818;stroke-width:0.5;"/><text fill="#000000" font-family="sans-serif" font-size="14" lengthAdjust="spacing" textLength="125" x="146.6008" y="347.3784">Connect to Server</text></g><g id="elem_Create Game Session"><ellipse cx="209.7893" cy="179.3007" fill="#F1F1F1" rx="93.6693" ry="21.1339" style="stroke:#181818;stroke-width:0.5;"/><text fill="#000000" font-family="sans-serif" font-size="14" lengthAdjust="spacing" textLength="150" x="134.7893" y="182.1474">Create Game Session</text></g><g id="elem_Join Game Session"><ellipse cx="209.785" cy="271.2959" fill="#F1F1F1" rx="83.995" ry="19.199" style="stroke:#181818;stroke-width:0.5;"/><text fill="#000000" font-family="sans-serif" font-size="14" lengthAdjust="spacing" textLength="128" x="145.5235" y="274.2324">Join Game Session</text></g><g id="elem_Update Ready Status"><ellipse cx="209.7931" cy="419.2955" fill="#F1F1F1" rx="91.4431" ry="20.6886" style="stroke:#181818;stroke-width:0.5;"/><text fill="#000000" font-family="sans-serif" font-size="14" lengthAdjust="spacing" textLength="145" x="137.2931" y="422.1422">Update Ready Status</text></g><g id="elem_Send Click"><ellipse cx="209.7949" cy="490.2938" fill="#F1F1F1" rx="62.7349" ry="14.947" style="stroke:#181818;stroke-width:0.5;"/><text fill="#000000" font-family="sans-serif" font-size="14" lengthAdjust="spacing" textLength="72" x="170.7949" y="494.0414">Send Click</text></g><g id="elem_Shop Purchase Request"><ellipse cx="209.7923" cy="563.2953" fill="#F1F1F1" rx="101.7923" ry="22.7585" style="stroke:#181818;stroke-width:0.5;"/><text fill="#000000" font-family="sans-serif" font-size="14" lengthAdjust="spacing" textLength="168" x="125.7923" y="566.142">Shop Purchase Request</text></g><g id="elem_Broadcast Game State"><ellipse cx="209.7895" cy="101.2988" fill="#F1F1F1" rx="95.9095" ry="21.5819" style="stroke:#181818;stroke-width:0.5;"/><text fill="#000000" font-family="sans-serif" font-size="14" lengthAdjust="spacing" textLength="155" x="132.2895" y="104.1455">Broadcast Game State</text></g><!--entity Client--><g id="elem_Client"><ellipse cx="25.5" cy="361.6469" fill="#F1F1F1" rx="8" ry="8" style="stroke:#181818;stroke-width:0.5;"/><path d="M25.5,369.6469 L25.5,396.6469 M12.5,377.6469 L38.5,377.6469 M25.5,396.6469 L12.5,411.6469 M25.5,396.6469 L38.5,411.6469 " fill="none" style="stroke:#181818;stroke-width:0.5;"/><text fill="#000000" font-family="sans-serif" font-size="14" lengthAdjust="spacing" textLength="39" x="6" y="426.142">Client</text></g><g id="elem_GMN18"><path d="M374.58,81.1669 L374.58,97.2969 L305.91,101.2969 L374.58,105.2969 L374.58,121.4325 A0,0 0 0 0 374.58,121.4325 L528.58,121.4325 A0,0 0 0 0 528.58,121.4325 L528.58,91.1669 L518.58,81.1669 L374.58,81.1669 A0,0 0 0 0 374.58,81.1669 " fill="#FEFFDD" style="stroke:#181818;stroke-width:0.5;"/><path d="M518.58,81.1669 L518.58,91.1669 L528.58,91.1669 L518.58,81.1669 " fill="#FEFFDD" style="stroke:#181818;stroke-width:0.5;"/><text fill="#000000" font-family="sans-serif" font-size="13" lengthAdjust="spacing" textLength="133" x="380.58" y="98.2338">Periodically triggered</text><text fill="#000000" font-family="sans-serif" font-size="13" lengthAdjust="spacing" textLength="125" x="380.58" y="113.3666">by game loop timer</text></g><!--link Create Game Session to Join Game Session--><g id="link_Create Game Session_Join Game Session"><path d="M209.79,200.7069 C209.79,216.1369 209.79,230.8069 209.79,245.7869 " fill="none" id="Create Game Session-to-Join Game Session" style="stroke:#181818;stroke-width:1.0;stroke-dasharray:7.0,7.0;"/><polygon fill="#181818" points="209.79,251.7869,213.79,242.7869,209.79,246.7869,205.79,242.7869,209.79,251.7869" style="stroke:#181818;stroke-width:1.0;"/><text fill="#000000" font-family="sans-serif" font-size="13" lengthAdjust="spacing" textLength="61" x="167.79" y="230.8338">&#171;include&#187;</text></g><!--link Client to Connect to Server--><g id="link_Client_Connect to Server"><path d="M45.26,384.6669 C54.21,381.6169 65.1,378.0669 75,375.2969 C98.65,368.6669 119.067,363.6768 142.037,358.4968 " fill="none" id="Client-to-Connect to Server" style="stroke:#181818;stroke-width:1.0;"/><polygon fill="#181818" points="147.89,357.1769,138.2305,355.2547,143.0125,358.2768,139.9904,363.0588,147.89,357.1769" style="stroke:#181818;stroke-width:1.0;"/></g><!--link Client to Create Game Session--><g id="link_Client_Create Game Session"><path d="M31.85,352.9269 C38.54,318.0769 53.12,267.2169 84,234.2969 C100.93,216.2469 119.2174,205.8979 141.5774,197.4479 " fill="none" id="Client-to-Create Game Session" style="stroke:#181818;stroke-width:1.0;"/><polygon fill="#181818" points="147.19,195.3269,137.3571,194.7667,142.5128,197.0944,140.1851,202.2502,147.19,195.3269" style="stroke:#181818;stroke-width:1.0;"/></g><!--link Client to Join Game Session--><g id="link_Client_Join Game Session"><path d="M45.26,353.4069 C54.87,337.4469 67.95,319.9169 84,308.2969 C100.66,296.2369 115.4637,289.6999 135.0737,284.1899 " fill="none" id="Client-to-Join Game Session" style="stroke:#181818;stroke-width:1.0;"/><polygon fill="#181818" points="140.85,282.5669,131.1035,281.1505,136.0364,283.9194,133.2675,288.8523,140.85,282.5669" style="stroke:#181818;stroke-width:1.0;"/></g><!--link Client to Update Ready Status--><g id="link_Client_Update Ready Status"><path d="M45.32,394.1869 C66.15,397.3869 95.1196,401.8358 127.3396,406.7858 " fill="none" id="Client-to-Update Ready Status" style="stroke:#181818;stroke-width:1.0;"/><polygon fill="#181818" points="133.27,407.6969,124.9818,402.3766,128.328,406.9376,123.767,410.2838,133.27,407.6969" style="stroke:#181818;stroke-width:1.0;"/></g><!--link Client to Send Click--><g id="link_Client_Send Click"><path d="M45.34,419.8969 C55.37,433.0669 68.77,447.8269 84,457.2969 C105.03,470.3769 125.2775,477.0765 148.1875,481.8765 " fill="none" id="Client-to-Send Click" style="stroke:#181818;stroke-width:1.0;"/><polygon fill="#181818" points="154.06,483.1069,146.0715,477.3463,149.1663,482.0816,144.431,485.1763,154.06,483.1069" style="stroke:#181818;stroke-width:1.0;"/></g><!--link Client to Shop Purchase Request--><g id="link_Client_Shop Purchase Request"><path d="M34.44,429.8669 C42.33,459.0069 57.25,497.9969 84,522.2969 C97.08,534.1769 108.0299,540.6078 124.8199,546.6078 " fill="none" id="Client-to-Shop Purchase Request" style="stroke:#181818;stroke-width:1.0;"/><polygon fill="#181818" points="130.47,548.6269,123.341,541.8315,125.7616,546.9443,120.6488,549.365,130.47,548.6269" style="stroke:#181818;stroke-width:1.0;"/></g><!--SRC=[TL91QiCm4Bph5KikRGxf0qhm8IuKUWe9US1MsZYYYkIkreLG-lUkY08EA3u8CpCxcXqaNWB1PjF3dlY765Pmo0Gzwl7cSM0ycq170Kd0VZW9ECzanQTe35f937tm5CMO0cCSr6xnZcUgXWluDQ3VSvzYL4KnkZBBYZEX4DIHdDMvCX_9nnP-65sPs16w2-m5PSgLsLDq9O_zkW6dDC9sOdig2-teUw8ibTjmGcSnIxr3ZMXf7eU2bwwL2LvXlVRHXibHrva_Oww5m6hLDRU-erlBpmMD3kPqiugvODx87TuknZpf_yYKLUZZ03uASSG08x5FpbiGVGK3iOb9xxs-Y7HyL2R0jivX29VRB3abFYym56L86aJyMIrBr6Bx3m00]--></g></svg>